<svg width="46" height="46" viewBox="0 0 46 46" fill="none" xmlns="http://www.w3.org/2000/svg">
<path d="M23 8.58667C21.5519 8.58667 20.1364 9.01608 18.9323 9.82059C17.7283 10.6251 16.7898 11.7686 16.2357 13.1065C15.6815 14.4443 15.5365 15.9165 15.819 17.3367C16.1015 18.757 16.7989 20.0616 17.8228 21.0855C18.8468 22.1095 20.1514 22.8068 21.5716 23.0893C22.9919 23.3718 24.464 23.2268 25.8019 22.6727C27.1398 22.1185 28.2832 21.1801 29.0878 19.976C29.8923 18.772 30.3217 17.3564 30.3217 15.9083C30.3217 13.9665 29.5503 12.1042 28.1772 10.7311C26.8041 9.35806 24.9418 8.58667 23 8.58667ZM23 20.6744C22.0574 20.6744 21.1359 20.3949 20.3521 19.8712C19.5683 19.3475 18.9574 18.6031 18.5967 17.7322C18.236 16.8614 18.1416 15.903 18.3255 14.9785C18.5094 14.054 18.9633 13.2047 19.6299 12.5382C20.2964 11.8716 21.1457 11.4177 22.0702 11.2338C22.9947 11.0499 23.953 11.1443 24.8239 11.505C25.6948 11.8658 26.4392 12.4766 26.9629 13.2604C27.4866 14.0442 27.7661 14.9657 27.7661 15.9083C27.7627 17.1702 27.2591 18.3792 26.3657 19.2702C25.4722 20.1613 24.2619 20.6617 23 20.6617V20.6744Z" fill="white"/>
<path d="M38.0394 17.2372C37.1724 17.2131 36.3127 17.0713 35.4839 16.8155V17.5439C35.4839 22.7317 32.3917 27.3444 30.13 30.7178L29.67 31.395C27.4722 34.6917 24.5589 38.3844 22.9872 40.2117C21.4794 38.3844 18.5022 34.6917 16.3044 31.395L15.87 30.6667C13.6083 27.2933 10.5033 22.6805 10.5033 17.4928C10.5111 15.3442 11.0732 13.234 12.1354 11.3663C13.1976 9.49862 14.7238 7.9367 16.5664 6.83163C18.409 5.72657 20.5057 5.11579 22.6535 5.05837C24.8013 5.00095 26.9276 5.49884 28.8267 6.50388C28.9283 5.62529 29.152 4.76517 29.4911 3.94832C27.1965 2.84009 24.6576 2.33411 22.1134 2.47804C19.5693 2.62197 17.1037 3.41107 14.9487 4.77102C12.7937 6.13098 11.0203 8.01704 9.79555 10.2516C8.57077 12.4862 7.93488 14.9957 7.94776 17.5439C7.94776 23.5111 11.2955 28.5072 13.7489 32.1489L14.1961 32.8133C16.637 36.351 19.2555 39.7628 22.0417 43.0355L23.0128 44.1728L23.9839 43.0355C26.7696 39.7625 29.3881 36.3507 31.8294 32.8133L32.2767 32.1361C34.7172 28.4944 38.065 23.5111 38.065 17.5439C38.0522 17.4417 38.0394 17.3394 38.0394 17.2372Z" fill="white"/>
<path d="M38.3333 14.0555C41.8618 14.0555 44.7222 11.1951 44.7222 7.66666C44.7222 4.13817 41.8618 1.27777 38.3333 1.27777C34.8049 1.27777 31.9445 4.13817 31.9445 7.66666C31.9445 11.1951 34.8049 14.0555 38.3333 14.0555Z" fill="white"/>
</svg>
