<svg width="79" height="50" viewBox="0 0 79 50" fill="none" xmlns="http://www.w3.org/2000/svg">
<path d="M0 6.8787C0 4.36391 1.50922 3.00789 4.52767 2.81065L16.1591 2.88462C16.9397 2.88462 17.4601 3.25444 17.7204 3.99408C18.9173 7.69231 20.2574 10.8851 21.7406 13.5725C23.2238 16.2599 25.1624 19.354 27.5563 22.855C27.7645 23.2988 28.1028 23.5207 28.5711 23.5207C28.9354 23.5207 29.2217 23.3481 29.4298 23.003L29.664 22.1894L29.7421 9.39349C29.7421 8.50592 29.5209 7.9142 29.0786 7.61834C28.6362 7.32249 27.8165 7.10059 26.6196 6.95266C25.6828 6.80473 25.2144 6.26233 25.2144 5.32544C25.2144 5.12821 25.2404 4.98028 25.2925 4.88166C26.3854 1.67653 29.5079 0.0739645 34.6601 0.0739645L39.0316 0C41.0092 0 42.6486 0.468442 43.9496 1.40533C45.2507 2.34221 45.9012 3.8215 45.9012 5.8432V22.6331C46.2655 22.8797 46.6038 23.003 46.916 23.003C47.6966 23.003 48.3732 22.5592 48.9457 21.6716C54.6703 14.0779 57.7668 8.99901 58.2352 6.43491C58.2352 6.3856 58.2872 6.26233 58.3913 6.06509C58.7556 5.32544 59.3541 4.68442 60.1868 4.14201C61.0194 3.59961 61.748 3.22978 62.3725 3.03254C62.5807 2.93393 62.8149 2.88462 63.0751 2.88462H75.1749L75.9555 2.95858C76.9964 2.95858 77.803 3.42702 78.3755 4.36391C78.5837 4.65976 78.7268 4.98028 78.8048 5.32544C78.8829 5.67061 78.935 6.01578 78.961 6.36095C78.987 6.70611 79 6.90335 79 6.95266V7.47041C78.6357 9.49211 77.712 11.6494 76.2288 13.9423C74.7456 16.2352 72.859 18.713 70.5692 21.3757C68.2793 24.0385 66.8482 25.789 66.2757 26.6272C65.8073 27.2189 65.5731 27.7613 65.5731 28.2544C65.5731 28.6489 65.7813 29.0927 66.1976 29.5858L77.5949 43.1953C78.2194 43.9842 78.5316 44.8471 78.5316 45.784C78.5316 46.9181 78.0632 47.855 77.1265 48.5947C76.1897 49.3343 75.0708 49.7535 73.7698 49.8521L72.4427 49.926H60.5771C60.525 49.926 60.4209 49.9384 60.2648 49.963C60.1087 49.9877 60.0046 50 59.9526 50C58.8076 50 57.7408 49.5316 56.752 48.5947C56.3877 48.2002 53.9417 45.2909 49.414 39.8669C49.1538 39.5217 48.7895 39.2012 48.3211 38.9053C48.113 39.6943 47.8398 40.8284 47.5015 42.3077C47.1632 43.787 46.916 44.8471 46.7599 45.4882L46.5257 46.7456C46.0053 48.4714 44.9124 49.5069 43.247 49.8521L42.1542 49.926H34.504C30.1845 49.926 25.878 48.0523 21.5845 44.3047C17.291 40.5572 13.4269 35.7125 9.99209 29.7707C6.55731 23.8289 3.35672 16.9132 0.390316 9.02367C0.130105 8.38264 0 7.66765 0 6.8787ZM46.916 26.0355C45.8231 26.0355 44.8343 25.752 43.9496 25.1849C43.0649 24.6179 42.6225 23.8412 42.6225 22.855V5.8432C42.6225 4.857 42.3623 4.15434 41.8419 3.73521C41.3215 3.31608 40.4107 3.10651 39.1097 3.10651L34.6601 3.25444C32.4223 3.25444 30.7309 3.62426 29.586 4.36391C31.8758 5.39941 33.0208 7.07594 33.0208 9.39349V22.4112C32.9167 23.644 32.3962 24.6672 31.4595 25.4808C30.5227 26.2944 29.4819 26.7012 28.337 26.7012C26.7757 26.7012 25.5787 25.9862 24.746 24.5562C20.6868 18.7377 17.6683 13.215 15.6907 7.98817L14.9881 6.06509L4.60573 5.99112C3.92918 5.99112 3.55188 6.02811 3.47381 6.10207C3.39575 6.17604 3.35672 6.3856 3.35672 6.73077C3.35672 7.17456 3.40876 7.643 3.51285 8.1361L5.15217 12.2781C9.52372 22.9783 14.2726 31.4103 19.3987 37.574C24.5249 43.7377 29.5599 46.8195 34.504 46.8195H42.3103C42.6225 46.8195 42.8567 46.7332 43.0128 46.5607C43.169 46.3881 43.2991 46.0552 43.4032 45.5621L43.5593 44.8225L45.0425 38.3136C45.4588 37.426 45.8231 36.8343 46.1354 36.5385C46.7078 35.9961 47.3844 35.7249 48.165 35.7249C49.414 35.7249 50.6891 36.4398 51.9901 37.8698L58.6255 45.858C59.0418 46.499 59.4842 46.8195 59.9526 46.8195H72.833C74.3943 46.8195 75.1749 46.4497 75.1749 45.7101C75.1749 45.4635 75.0968 45.217 74.9407 44.9704L63.6215 31.5828C62.7368 30.5473 62.2945 29.4379 62.2945 28.2544C62.2945 27.071 62.7108 25.9369 63.5435 24.8521C64.22 23.8659 65.5341 22.2263 67.4857 19.9334C69.4373 17.6405 71.1416 15.4956 72.5988 13.4985C74.056 11.5015 75.0188 9.68935 75.4872 8.06213L75.7213 7.10059C75.6693 7.00197 75.6433 6.84172 75.6433 6.61982C75.6433 6.39793 75.6173 6.21302 75.5652 6.06509H63.3093C62.5287 6.36095 61.9042 6.80473 61.4358 7.39645L60.9674 8.80177C59.6663 12.2041 56.2576 17.4556 50.7411 24.5562C49.6482 25.5424 48.3732 26.0355 46.916 26.0355Z" fill="white"/>
</svg>
